<?xml version="1.0" encoding="utf-8"?>
<!-- Generator: Adobe Illustrator 16.0.0, SVG Export Plug-In . SVG Version: 6.00 Build 0)  -->
<!DOCTYPE svg PUBLIC "-//W3C//DTD SVG 1.1//EN" "http://www.w3.org/Graphics/SVG/1.1/DTD/svg11.dtd">
<svg version="1.1" id="Layer_1" xmlns="http://www.w3.org/2000/svg" xmlns:xlink="http://www.w3.org/1999/xlink" x="0px" y="0px"
	 width="439.189px" height="447.082px" viewBox="0 0 439.189 447.082" enable-background="new 0 0 439.189 447.082"
	 xml:space="preserve">
<g>
	<g>
		<g>
			<path fill-rule="evenodd" clip-rule="evenodd" fill="none" stroke="#82BEDF" stroke-width="5" stroke-miterlimit="10" d="
				M324.037,42.063c17.011,0.812,30.842,5.627,40.088,19.354c5.1,7.568,7.589,16.229,8.662,25.199
				c0.947,7.938,1.318,15.948,1.964,23.928c0.466,5.758,0.62,5.697,6.16,5.956c1.679,0.081,3.901,1.077,4.825,2.392
				c2.448,3.482,4.443,7.311,6.394,11.117c2.11,4.121,3.923,7.976,9.802,7.804c3.357-0.099,5.153,3.167,6.271,6.16
				c0.805,2.147,1.77,3.135,4.383,3.087c5.943-0.105,11.031,7.671,11.443,13.715c0.035,0.515-0.56,1.348-1.069,1.588
				c-8.278,3.875-17.04,6.941-24.79,11.672c-11.89,7.257-23.144,15.572-34.534,23.621c-2.299,1.623-4.282,3.865-5.964,6.148
				c-8.85,12.012-21.935,16.339-35.512,19.688c-4.994,1.23-8.574-1.707-11.228-5.439c-7.227-10.169-10.401-21.821-10.327-34.072
				c0.022-4.162,2.745-8.451,4.771-12.406c1.446-2.822,3.871-5.132,5.713-7.775c1.515-2.178,1-3.422-1.861-3.715
				c-7.251-0.742-12.056-6.207-12.012-13.363c0.031-5.312-1.107-10.053-3.863-14.936c-2.394-4.242-2.891-9.797-3.319-14.854
				c-0.81-9.493-0.851-19.051-1.45-28.566c-0.307-4.875-1.464-9.707-1.65-14.578c-0.423-11.09,4.776-19.254,14.154-24.756
				C308.512,44.674,316.604,42.317,324.037,42.063z M293.017,109.587c-0.439,0.038-0.875,0.078-1.311,0.118
				c0.566,5.525,0.645,11.154,1.811,16.549c1.599,7.4,7.007,12.654,12.021,17.899c9.408,9.837,26.172,9.128,35.26-0.886
				c2.717-2.998,6.604-4.905,9.76-7.541c2.125-1.772,4.527-3.641,5.732-6.012c3.314-6.532,2.792-13.52,0.547-20.242
				c-3.245-9.729-6.963-19.298-10.337-28.986c-2.187-6.283-5.284-11.969-9.707-16.965c-9.679-10.938-28.412-11.611-37.728-1.104
				c-6.211,7.008-8.11,15.526-7.551,24.682C291.968,94.6,292.511,102.09,293.017,109.587z"/>
			<path fill-rule="evenodd" clip-rule="evenodd" fill="none" stroke="#82BEDF" stroke-width="5" stroke-miterlimit="10" d="
				M165.103,190.233c1.385-7.588,2.677-15.194,4.219-22.747c0.398-1.952,0.541-3.245-1.741-3.757
				c-0.69-0.151-1.342-0.498-1.989-0.807c-6.895-3.261-8.289-5.943-7.179-13.642c1.106-7.68,2.435-15.343,3.215-23.058
				c1.002-9.925,0.663-19.751-2.777-29.365c-0.772-2.159-0.312-5.326,0.742-7.456c2.761-5.589,4.665-11.326,6.216-17.374
				c2.563-9.98,9.319-17.214,18.191-22.072c11.699-6.408,24.435-9.172,37.7-7.424c14.538,1.913,23.593,10.954,27.879,24.559
				c1.84,5.851,2.21,12.158,3.306,18.248c0.372,2.083,0.577,4.286,1.434,6.175c4.333,9.542,5.799,19.128,1.432,29.088
				c-0.373,0.847-0.24,2.15,0.127,3.05c2.978,7.281,2.933,14.367-0.697,21.46c-0.49,0.969-0.122,2.681,0.393,3.798
				c1.74,3.778,3.932,7.352,5.553,11.178c1.618,3.81,1.584,7.744,0.635,11.914c-0.912,4.012-0.965,8.273-0.972,12.426
				c-0.021,9.922,0.043,19.818-2.448,29.549c-1.799,7.02-5.255,12.945-10.433,18.02c-1.595,1.568-2.953,3.705-3.633,5.836
				c-3.553,11.121-7.613,22.021-16.294,30.232c-3.293,3.113-7.555,5.349-11.669,7.395c-3.532,1.756-6.139,0.655-7.45-3.02
				c-2.572-7.201-7.377-11.534-14.592-14.072c-6.668-2.342-10.513-8.271-13.68-14.144c-9.029-16.757-13.871-34.743-14.592-53.79
				C165.699,190.366,165.403,190.296,165.103,190.233z M213.995,55.27c-10.188,0.141-18.157,3.961-24.401,11.227
				c-10.858,12.63-15.084,28.012-17.445,43.988c-1.57,10.611,1.366,20.917,3.706,31.116c1.171,5.107,4.109,9.726,9.325,12.096
				c5.855,2.661,11.701,5.358,17.656,7.794c5.144,2.105,10.311,1.654,15.215-0.941c5.166-2.734,10.243-5.637,15.407-8.372
				c7.146-3.787,10.523-9.569,10.364-17.738c-0.089-4.504,0.119-9.165,1.224-13.493c1.267-4.963,1.181-9.59-0.141-14.437
				c-1.059-3.892-1.549-7.937-2.534-11.849c-1.947-7.729-3.336-15.702-6.28-23.042C232.149,61.79,224.841,55.42,213.995,55.27z"/>
			<path fill-rule="evenodd" clip-rule="evenodd" fill="none" stroke="#82BEDF" stroke-width="5" stroke-miterlimit="10" d="
				M122.493,95.893c-0.947,5.393-1.85,10.791-2.865,16.166c-0.372,1.974-0.865,3.401,2.142,2.016
				c2.599-1.199,6.788,1.455,7.127,4.17c0.051,0.422-0.061,1.037-0.339,1.271c-0.212,0.181-0.979,0.057-1.216-0.195
				c-3.383-3.619-6.083-1.825-8.768,0.961c-0.589,0.615-1.476,0.938-2.228,1.398c-0.232-0.881-0.616-1.75-0.674-2.637
				c-0.666-9.996-1.064-20.012-2.034-29.975c-0.325-3.342-1.812-6.66-3.238-9.779c-2.032-4.436-5.585-6.1-10.302-4.79
				C82.473,79.409,65.166,78.722,48.119,72c-2.562-1.01-4.957-0.328-6.361,1.852c-2.111,3.28-4.587,6.658-5.453,10.337
				c-2.296,9.729-3.822,19.64-5.626,29.488c-0.15,0.816-0.034,1.678-0.17,2.497c-0.306,1.848-0.692,3.684-1.045,5.523
				c-1.434-0.896-2.886-1.769-4.301-2.693c-3.484-2.272-5.191,0.246-6.997,2.553c-0.35,0.446-0.762,0.844-1.143,1.264
				c-0.081-0.641-0.315-1.307-0.22-1.92c0.822-5.217,4.991-7.281,9.377-4.711c0.469,0.273,1.05,0.358,1.577,0.535
				c0.053-0.583,0.207-1.175,0.139-1.744c-0.606-5.094-1.472-10.168-1.836-15.277c-0.66-9.18,0.336-18.164,4.605-26.487
				c2.787-5.437,6.937-9.444,12.459-12.374c9.786-5.191,19.393-10.742,28.869-16.486c2.656-1.611,3.873-1.304,6.314,0.505
				c7.553,5.595,15.227,11.146,23.401,15.743C115.637,68.438,122.163,80.069,122.493,95.893z"/>
			<path fill-rule="evenodd" clip-rule="evenodd" fill="none" stroke="#82BEDF" stroke-width="5" stroke-miterlimit="10" d="
				M28.628,146.683c-1.157-0.563-2.979-1.147-4.381-2.259c-0.737-0.58-0.747-2.086-1.086-3.177c0.902,0.282,1.789,0.646,2.709,0.817
				c1.599,0.296,3.237,0.381,4.822,0.728c1.027,0.223,1.989,0.755,2.979,1.15c-0.869,0.757-1.688,1.583-2.633,2.229
				C30.595,146.479,29.908,146.433,28.628,146.683z"/>
			<path fill-rule="evenodd" clip-rule="evenodd" fill="none" stroke="#82BEDF" stroke-width="5" stroke-miterlimit="10" d="
				M117.253,141.594c1.825-0.658,2.871-0.543,4.697-1.2c0.4-0.145,0.803-0.282,1.203-0.427c0.065,0.447,0.349,1.092,0.156,1.309
				c-1.204,1.344-2.318,3.252-3.842,3.713c-1.854,0.562-4.098-0.033-6.134-0.369c-0.308-0.048-0.664-2.006-0.549-2.061
				c1.083-0.471,2.267-0.724,3.419-1.041C116.294,141.799,117.164,141.313,117.253,141.594z"/>
			<path fill-rule="evenodd" clip-rule="evenodd" fill="none" stroke="#82BEDF" stroke-width="5" stroke-miterlimit="10" d="
				M25.632,143.965c-0.276,0.121-0.821,2.607-3.936-4.834c-0.225-0.539-1.492-2.939-1.748-3.445
				c-1.014-2.014-1.947-4.068-2.91-6.109c0.298-0.045,0.767-0.231,0.865-0.109C19.667,131.622,28.99,142.502,25.632,143.965z"/>
			<path fill-rule="evenodd" clip-rule="evenodd" fill="none" stroke="#82BEDF" stroke-width="5" stroke-miterlimit="10" d="
				M121.627,143.325c-0.58-1.277-1.319-2.276-1.181-2.501c1.483-2.401,6.235-9.894,7.842-12.216c0.032-0.049,0.738,0.37,1.127,0.57
				C127.925,131.819,124.534,140.446,121.627,143.325z"/>
			<path fill-rule="evenodd" clip-rule="evenodd" fill="none" stroke="#82BEDF" stroke-width="5" stroke-miterlimit="10" d="
				M289.478,81.477c1.492,11.314,1.314,22.683,1.33,34.061c0.012,6.551,1.305,12.951,4.93,18.655
				c1.174,1.849,2.165,3.814,3.242,5.728"/>
			<path fill-rule="evenodd" clip-rule="evenodd" fill="none" stroke="#82BEDF" stroke-width="5" stroke-miterlimit="10" d="
				M28.99,108.368c-0.238,3.586-0.479,7.17-0.718,10.756"/>
			<path fill-rule="evenodd" clip-rule="evenodd" fill="none" stroke="#82BEDF" stroke-width="5" stroke-miterlimit="10" d="
				M301.13,148.883c-0.835-0.057-1.672-0.121-2.51-0.178"/>
		</g>
		<rect x="33.718" y="296.145" fill-rule="evenodd" clip-rule="evenodd" fill="none" width="393.104" height="43.012"/>
		
			<text transform="matrix(0.9093 0 0 1 33.7173 324.9585)" fill="none" stroke="#82BDDF" stroke-width="3" stroke-linecap="round" stroke-linejoin="round" stroke-miterlimit="10" font-family="'LemonMilk'" font-size="36.6055" letter-spacing="2.199">#ourthreewinners</text>
	</g>
</g>
</svg>
